<svg width="180" height="56" fill="none" xmlns="http://www.w3.org/2000/svg"><path fill-rule="evenodd" clip-rule="evenodd" d="M63.025 6.222h-5.19v25.78h5.19V20.157c0-1.812 1.644-2.684 3.328-2.684 1.893 0 2.56 1.15 2.56 3.486v11.058h5.19V20.55c0-4.604-2.002-7.249-5.749-7.249-2.909 0-4.453 1.597-5.12 3.517h-.21V6.222zM45.39 17.72v8.953c0 3.486 1.893 5.336 5.47 5.344h3.087v-4.01h-3.367v-10.28h3.646v-4.01h-3.646v-4.95H45.92v2.992c0 1.257-.419 1.951-1.823 1.951H42.8v4.01h2.591zm32.18 4.704c0-5.784 3.087-9.547 8.619-9.547 6.097 0 8.549 4.388 8.549 9.339v1.534H82.93v.278c0 2.406 1.296 3.933 4.065 3.933 2.173 0 3.367-1.01 4.523-2.198l2.591 3.208c-1.644 1.882-4.344 3.03-7.711 3.03-5.64.008-8.828-3.724-8.828-9.577zm11.807-1.704v-.316c0-2.229-1.016-3.725-3.088-3.725-2.07 0-3.366 1.496-3.366 3.763v.278h6.454zm-80.58-3v8.953c0 3.486 1.893 5.336 5.47 5.344h3.087v-4.01h-3.367v-10.28h3.646v-4.01h-3.646v-4.95H9.326v2.992c0 1.257-.42 1.951-1.824 1.951H6.207v4.01h2.591z" fill="#161616"/><path fill-rule="evenodd" clip-rule="evenodd" d="M162.751 44.957c.039.054.078.116.116.185 0 .07.024.123.055.162.038.038.062.07.062.108.015.293.116.563.31.81.109-.008.116.046.008.161.085.147.209.286.38.425.171.138.334.293.489.47.225.208.512.363.845.455.334.093.706.077 1.102-.046l.061-.024c.009.001.081-.012.21-.046a.972.972 0 0 0 .287-.37c.078-.17.047-.285-.1-.355-.187-.069-.272-.077-.249-.046.024.039-.077.023-.302-.038-.334-.17-.528-.293-.567-.386a6.214 6.214 0 0 0-.356-.563c-.156-.17-.249-.331-.272-.478a5.228 5.228 0 0 0-.101-.486c-.046-.216-.093-.44-.139-.678a15.422 15.422 0 0 1-.156-.949.455.455 0 0 0-.062-.216.238.238 0 0 1-.007-.216c.038-1.573.108-3.03.217-4.364.101-1.334.264-2.46.481-3.386l.442-2.483a.959.959 0 0 1 .163-.61 4.26 4.26 0 0 0 .334-.616c.302-.486.605-.948.899-1.38.295-.432.559-.856.799-1.265.481-.679.9-1.357 1.257-2.051.238-.457.469-.915.697-1.367l.343-.677c.24-.416.45-.81.636-1.18.186-.37.38-.779.582-1.226.122-.254.248-.504.376-.756l.128-.254c.164-.325.32-.665.483-1.018l.021-.046.087-.2c.134-.31.265-.614.386-.918.148-.37.288-.756.419-1.165a.802.802 0 0 1 .039-.331 7.644 7.644 0 0 0 .427-1.635c.085-.57.147-1.11.202-1.627.069-.733-.21-1.327-.854-1.774a.51.51 0 0 0-.225-.07 1.24 1.24 0 0 1-.279-.069 5.756 5.756 0 0 0-.807-.1c-.24-.008-.504-.023-.799-.046-.077.007-.109.023-.109.061-.287.2-.496.41-.636.633l-.332.572c-.19.326-.378.648-.56.97a50.02 50.02 0 0 0-.838 1.542c-.093.409-.294.856-.605 1.342a.508.508 0 0 1-.147.386 9.23 9.23 0 0 1-.334 1.133c-.132.355-.279.733-.442 1.142a11.825 11.825 0 0 0-.721 1.727 9.705 9.705 0 0 0-.435 1.936.985.985 0 0 0-.093.331l-.075.24c-.067.214-.132.421-.189.624-.085.277-.155.524-.217.748l-.279 1.11a71.775 71.775 0 0 0-.512 2.051 36.029 36.029 0 0 0-.411 1.99 5.313 5.313 0 0 1-.443 1.28c-.1.147-.186.3-.256.447a9.572 9.572 0 0 1-.256.502.492.492 0 0 1-.155.254c-.07.054-.139.123-.209.2a2.029 2.029 0 0 1-.38.702 3.348 3.348 0 0 0-.388.594l-.007.008a4.056 4.056 0 0 1-.311.308c-.109.1-.194.2-.264.316-.171.263-.349.51-.52.733-.17.232-.349.401-.527.517-.21.223-.396.455-.551.678a5.602 5.602 0 0 1-.497.625 24.075 24.075 0 0 1-3.118 2.93 4.884 4.884 0 0 0-.667.44c-.163.131-.404.247-.73.332l-.163.007a.67.67 0 0 0-.271.07c-.07.038-.147.007-.225-.1a8.133 8.133 0 0 1-.241-.456.6.6 0 0 1-.023-.516c-.008-.185 0-.347.031-.494.031-.146.047-.293.039-.44.085-.477.209-.963.372-1.465.156-.5.326-.956.489-1.364l.103-.169a27.755 27.755 0 0 1 .361-.571.013.013 0 0 1 .002.007c.003.018.009.007.016-.035.196-.301.398-.6.604-.898.38-.548.76-1.08 1.141-1.612l.628-.686c.07-.077.209-.162.403-.262.194-.1.365-.1.52 0 .078.07.101.108.062.108-.039 0-.031.054.008.162.194.138.326.3.411.5l.088.203c.053.124.105.245.16.36 0 .116.024.194.062.247.036.05.084.15.156.3l.023.047c.116.108.318.155.613.14.147-.008.295-.055.434-.132.109-.046.21-.115.318-.208.109-.093.124-.177.047-.247l-.303-.64a3.682 3.682 0 0 0-.395-.94c-.179-.301-.419-.54-.722-.71a6.864 6.864 0 0 1-.613-.247 1.37 1.37 0 0 0-.613-.139l-.713.031c-.148.008-.241.046-.272.124-.054.019-.108.04-.163.061-.054.021-.108.043-.163.062-.108.039-.24.1-.38.177-.287.155-.543.37-.768.633a31.17 31.17 0 0 1-.706.794l-.108.062c-.07.146-.148.277-.233.393a3.531 3.531 0 0 1-.233.285c-.101.185-.24.394-.411.617-.171.231-.326.455-.466.679a4.668 4.668 0 0 0-.442.678c-.116.224-.263.47-.434.733a4.511 4.511 0 0 0-.133.423c-.711.69-1.478 1.33-2.295 1.929a5.098 5.098 0 0 1-.722.493c-.194.1-.434.247-.721.44-.505.24-1.148.44-1.862.47-.714.031-1.342-.2-1.878-.686a2.09 2.09 0 0 1-.457-.447 35.532 35.532 0 0 1-.213-.287l-.198-.268a.818.818 0 0 1-.287-.347 2.388 2.388 0 0 1-.048-.092l-.032-.06a10.373 10.373 0 0 0-.161-.303 6.885 6.885 0 0 0-.349-1.026 2.278 2.278 0 0 1-.186-1.087l-.016-.386c-.054-.293-.062-.524-.031-.686.031-.17.039-.363.031-.579.024-.223.016-.44-.031-.655a6.236 6.236 0 0 0-.194-.702c-.093-.285-.209-.462-.357-.532a3.247 3.247 0 0 0-1.458-.648l-.272.016c-.294.054-.589.108-.876.177-.287.07-.574.2-.861.393a6.901 6.901 0 0 0-.792.748c-.279.309-.543.571-.791.802-.07.078-.147.062-.225-.046-.039-.038-.046-.139-.039-.3l.007-.067c.013-.145.029-.307.055-.481a7.32 7.32 0 0 0 .056-.481l.006-.067c.016-.17 0-.262-.038-.3-.342-.278-.768-.363-1.28-.27-.326.085-.466.239-.419.455a15.527 15.527 0 0 0-.256 1.049l-.001.001c-.046.215-.092.43-.139.63-.046.201-.085.34-.116.417l-.194.61c-.132.293-.248.64-.342 1.025-.045.192-.089.386-.13.584l-.009.01c-.38.494-.737.84-1.055 1.033a9.775 9.775 0 0 0-1.171.872c-.287.192-.536.324-.753.385a6.412 6.412 0 0 0-.76.278 5.087 5.087 0 0 1-1.637.424c-.551.046-1.086-.085-1.614-.393a.494.494 0 0 0-.256-.124.445.445 0 0 1-.256-.123c-.279-.494-.426-1.057-.457-1.674a8.1 8.1 0 0 1-.008-.763c.008-.262.031-.501.054-.717a.814.814 0 0 0 .016-.355 5.366 5.366 0 0 0-.044-.152v-.001a6.74 6.74 0 0 1-.057-.202.89.89 0 0 0-.404-.339c-.086-.04-.168-.075-.247-.11a8.525 8.525 0 0 1-.257-.114c-.264-.13-.481-.069-.652.193a11.48 11.48 0 0 1-.806 1.072c-.264.301-.536.625-.815.964-.07.077-.155.139-.24.2-.077.045-.153.1-.238.16l-.057.041-1.272 1.15a9.233 9.233 0 0 1-2.778 1.981 1.619 1.619 0 0 1-.729.309 5.363 5.363 0 0 0-.791.2c-.039.004-.084.006-.136.008a4.309 4.309 0 0 0-.136.007.984.984 0 0 1-.333-.038c-.148 0-.187-.07-.117-.216.086-.509.272-.94.551-1.28.535-1.041 1.179-1.874 1.924-2.491.109-.154.225-.27.372-.347a6.816 6.816 0 0 1 1.754-1.388c.279-.193.566-.324.861-.393.287-.07.582-.147.869-.232.139-.115.302-.092.496.085l.396.309c.039.077.108.069.217-.008a.986.986 0 0 0 .093-.332 3.049 3.049 0 0 0-1.001-1.542c-.155-.17-.395-.255-.729-.24a3.212 3.212 0 0 0-1.629.51l-.908.586c-.605.432-1.179.918-1.722 1.473a21.988 21.988 0 0 0-1.552 1.735l-.574.794c-.1.262-.225.525-.38.787-.147.262-.256.54-.318.833-.163.516-.124.994.117 1.418l.473.802c.326.71.814 1.018 1.474.918a4.088 4.088 0 0 0 1.365-.277 3.958 3.958 0 0 0 1.11-.432c.341-.2.69-.417 1.047-.648.535-.386 1.055-.81 1.567-1.272.511-.455 1.038-.917 1.565-1.379l.002-.002.892-.971c.109-.008.163.046.171.154.256.786.636 1.48 1.14 2.082.194.285.442.524.745.71.302.184.597.346.9.477.256.1.558.14.884.124.078.07.241.085.543.038l.024-.004c.235-.044.39-.073.465-.073 1.024-.077 2.102-.455 3.227-1.126.324-.19.631-.4.921-.63l-.044.09c-.07.078-.101.224-.093.44-.132.224-.109.447.085.656l.737.462c.077.07.077.124.008.162-.078.039-.039.054.108.047.256-.008.419-.07.489-.186l.007-.008c.106-.112.205-.217.311-.308.109-.1.194-.2.264-.316.108-.116.201-.293.279-.532l.12-.362.001-.002.12-.36c.085-.248.162-.464.248-.672.077-.208.155-.362.225-.478.233-.378.512-.74.83-1.08.38-.563.783-1.08 1.226-1.534.442-.455.907-.895 1.404-1.319.139-.115.295-.246.45-.378.163-.13.349-.239.566-.323.031-.04.07-.047.109-.008.038.03.038.07.007.108.039.177.055.37.024.57a.958.958 0 0 0 .077.571c.086.208.109.355.078.432.023.509.101 1.095.24 1.766.14.67.365 1.257.683 1.75.24.424.512.81.822 1.142.311.331.636.678.986 1.025.38.278.907.532 1.574.756.675.224 1.304.308 1.886.247.186-.047.387-.077.605-.085.217-.008.434-.054.651-.139a4.243 4.243 0 0 0 1.141-.432c.357-.2.698-.416 1.016-.648.217-.192.434-.37.667-.524l.118-.081-.04.937c.007.108.031.2.07.27.054.401.271.733.651 1.01.163.286.349.463.551.548.202.077.473.146.807.208.551.054 1.047.015 1.482-.116.729-.139 1.411-.478 2.048-1.018l.263-.231c.318-.308.636-.594.955-.864.318-.27.636-.593.946-.971.45-.494.9-.949 1.342-1.373a10.18 10.18 0 0 0 1.234-1.427c.139-.077.31-.277.496-.593.186-.317.334-.517.442-.594 0-.077.07-.255.225-.532l.116-.209c.065-.118.084-.153.063-.1-.016.324-.07.702-.14 1.126-.078.424-.14.84-.194 1.242-.054.408-.109.77-.171 1.102-.062.332-.085.571-.077.718-.014.095-.026.191-.038.286-.015.118-.03.235-.048.346-.031.2-.077.409-.139.632.008.185-.008.394-.054.633-.047.239-.031.447.054.624 0 .039-.008.07-.023.085a.135.135 0 0 0-.024.085c-.07.077-.085.162-.046.247.039.092.039.17.008.247.046.185.062.362.054.547-.008.185.008.37.054.547-.108.155-.108.378 0 .687.101.308.124.57.062.794a.469.469 0 0 0 .07.247zm3.98-17.721c-.256.416-.52.864-.792 1.35l-.031.046h-.054c-.085-.247-.054-.432.085-.548.125-.632.295-1.295.52-1.997a232.226 232.226 0 0 1 .683-2.059c.031-.224.077-.424.14-.61.069-.184.186-.408.356-.67a23.141 23.141 0 0 1 1.079-2.946c.395-.887.83-1.835 1.303-2.846l.022-.044c.157-.32.328-.667.506-1.043.178-.393.38-.755.581-1.095.132-.331.249-.54.357-.617l.163-.008c.031 0 .054.016.054.055.117.208.148.524.094.925a12.124 12.124 0 0 0-.373 1.496c-.043.24-.087.479-.132.718-.044.239-.089.477-.132.716-.148.365-.294.72-.436 1.067-.176.43-.347.845-.51 1.247a54.782 54.782 0 0 1-.954 2.151l.003.05c.002.032.005.07.005.112 0 .077-.032.147-.101.224a2.629 2.629 0 0 0-.419.563l-.203.394-.201.392a2.118 2.118 0 0 0-.147.417c-.027.112-.07.24-.121.39l-.026.08a2.58 2.58 0 0 0-.287.37 3.159 3.159 0 0 0-.233.424l-.143.232c-.227.37-.444.725-.656 1.064zM28.627 13.71c4.104 0 7.424 3.308 7.424 7.38a7.336 7.336 0 0 1-1.8 4.812l-4.414 5.521a1.554 1.554 0 0 1-2.428 0l-4.414-5.521h.007a7.351 7.351 0 0 1-1.8-4.812c0-4.08 3.329-7.38 7.425-7.38zm-2.506 7.387a2.502 2.502 0 0 0 2.506 2.491 2.502 2.502 0 0 0 2.506-2.49 2.502 2.502 0 0 0-2.506-2.491 2.502 2.502 0 0 0-2.506 2.49zm32.637 22.92c-.194.1-.434.246-.722.439a4.888 4.888 0 0 1-1.861.47 2.54 2.54 0 0 1-1.878-.686 2.097 2.097 0 0 1-.457-.448 31.678 31.678 0 0 1-.213-.286 49.271 49.271 0 0 0-.199-.269.825.825 0 0 1-.287-.347l-.078-.15v-.001l-.001-.001a11.118 11.118 0 0 0-.161-.303 6.94 6.94 0 0 0-.35-1.025 2.27 2.27 0 0 1-.185-1.088l-.016-.385c-.054-.293-.062-.525-.03-.687.03-.17.038-.362.03-.578.023-.224.016-.44-.03-.655a6.53 6.53 0 0 0-.195-.702c-.093-.285-.21-.463-.357-.532a3.253 3.253 0 0 0-1.458-.648l-.272.015c-.294.054-.59.108-.876.178-.287.07-.574.2-.861.393a6.89 6.89 0 0 0-.792.748c-.279.309-.543.57-.791.802-.07.077-.148.062-.225-.046-.039-.039-.047-.139-.039-.3l.007-.067a7.91 7.91 0 0 1 .055-.481c.027-.174.042-.336.056-.482l.006-.066c.016-.17 0-.262-.039-.3-.34-.278-.767-.363-1.28-.27-.325.084-.465.238-.418.454a14.943 14.943 0 0 0-.256 1.049c-.047.216-.093.432-.14.633-.047.2-.085.339-.117.416l-.193.61c-.132.292-.249.64-.342 1.025-.093.393-.178.794-.248 1.218-.07.424-.155.833-.248 1.218a4.55 4.55 0 0 1-.342.972c-.07.077-.1.224-.093.44-.132.223-.108.447.086.655l.737.463c.077.07.077.123.007.162-.077.038-.038.054.109.046.256-.008.419-.07.489-.185l.007-.008c.106-.113.205-.218.31-.308.11-.1.195-.2.265-.316.108-.116.201-.293.279-.532l.12-.363c.04-.121.082-.243.12-.362.086-.247.163-.463.249-.671.077-.208.155-.363.225-.478.232-.378.512-.74.83-1.08.38-.563.783-1.08 1.225-1.535.443-.454.908-.894 1.405-1.318.139-.115.294-.246.448-.377l.002-.001c.162-.131.349-.24.566-.324.03-.038.07-.046.108-.008.04.031.04.07.008.108.039.178.054.37.023.571a.956.956 0 0 0 .078.57c.085.209.109.355.078.432.023.51.1 1.096.24 1.766.14.671.365 1.257.683 1.75.24.425.512.81.822 1.142.31.332.636.679.985 1.026.38.278.908.532 1.575.756.675.223 1.303.308 1.885.246.187-.046.388-.077.605-.085.218-.007.435-.053.652-.138a4.241 4.241 0 0 0 1.14-.432c.357-.2.699-.416 1.017-.648a6.04 6.04 0 0 1 .667-.524c.176-.117.334-.242.478-.38a2.2 2.2 0 0 0 .305.488c.373.462.768.879 1.187 1.264.303.24.667.378 1.094.417.427.038.846.085 1.25.139.441-.016.767-.039.961-.054.217-.031.528-.108.923-.232l1.575-.509a14.652 14.652 0 0 0 2.304-.84 132.73 132.73 0 0 1 2.188-1.003c.318-.154.652-.331.993-.532.341-.193.706-.393 1.101-.594.567-.385 1.125-.74 1.66-1.056.486-.283.959-.608 1.436-.977a9.35 9.35 0 0 0-.07.445c-.07.532-.163 1.072-.287 1.627-.015.197-.035.38-.053.552v.005l-.024.237c-.024.24.007.501.093.787.124.362.372.57.744.624.078.14.202.24.373.286.163.046.302.1.419.17.59.161 1.063.184 1.404.076.341-.108.752-.262 1.218-.462.248-.116.52-.309.799-.579.1-.154.225-.316.388-.485.163-.17.31-.332.45-.486.349-.301.713-.74 1.07-1.303.357-.563.675-1.034.955-1.412-.008-.146.085-.185.271-.123l.062.123c.016.324.023.748.031 1.257 0 .51.047.91.132 1.196.093.4.272.74.543 1.017.272.278.597.579.978.887a2.013 2.013 0 0 1 .175.08l.05.02c.07.031.162.024.271-.015a2.382 2.382 0 0 0 2.048.293c.543-.092 1-.239 1.358-.44.357-.2.675-.454.954-.755.147-.116.271-.24.372-.37a1.71 1.71 0 0 1 .427-.378c.66-.764 1.156-1.404 1.482-1.928.325-.524.651-1.18.985-1.959.1-.293.194-.493.28-.586.085-.092.108-.177.069-.246-.008-.078.039-.093.132-.062.066.022.128.047.186.072.024.01.047.02.07.028.186.062.357.208.512.44.155.23.295.362.403.393.567.262 1.117.47 1.653.61a4.205 4.205 0 0 0 1.737.06c.295.024.575-.022.846-.123.272-.1.52-.161.737-.17.125-.026.234-.055.331-.08.072-.02.137-.037.197-.05.124-.062.24-.116.349-.155.108-.038.225-.092.349-.154a6.82 6.82 0 0 1 .512-.216c.295-.085.543-.193.76-.331.217-.14.427-.286.644-.44.326-.2.528-.378.613-.547.085-.17.295-.347.613-.548a.819.819 0 0 0 .295-.231c.054-.077.054-.224.007-.44.07-.038.086-.1.047-.17a.586.586 0 0 0-.117-.161.826.826 0 0 0-.605.023.412.412 0 0 0-.155.146.997.997 0 0 1-.155.2c-.326.232-.582.425-.776.58a5.453 5.453 0 0 1-.535.377 2.678 2.678 0 0 1-.543.239 8.202 8.202 0 0 0-.729.278c-.574.316-1.017.5-1.327.547-.31.054-.791.131-1.451.231a2.994 2.994 0 0 1-1.04.07 6.58 6.58 0 0 1-1-.2l-.288-.264-.286-.261a3.07 3.07 0 0 1-.52-.632c-.108-.031-.217-.147-.318-.34-.1-.2-.178-.424-.225-.678a13.063 13.063 0 0 1-.116-.764 8.822 8.822 0 0 1-.054-.601 9.18 9.18 0 0 1 0-.656c.007-.216.007-.47-.008-.763-.194-.208-.365-.34-.512-.386-.148-.046-.342-.208-.574-.493-.078-.039-.117-.07-.117-.108 0-.031-.093-.031-.271.015-.543.131-.753.417-.62.849.046.293.069.555.061.794-.007.239.031.501.117.786.132.394.201.71.21.949.015.239-.102.54-.342.918-.163.447-.287.802-.365 1.056-.078.255-.17.494-.271.694-.101.2-.218.424-.357.671-.14.247-.342.555-.62.933-.14.185-.265.378-.365.563-.101.185-.241.355-.42.509-.1.224-.287.509-.566.848-.279.34-.59.633-.923.887a3.462 3.462 0 0 1-1.024.54c-.341.108-.628.038-.861-.208l-.05-.033-.05-.03a18.5 18.5 0 0 1-.381-.246c-.21-.139-.31-.262-.318-.37-.101-.47-.202-.925-.31-1.357-.117-.432-.093-.926.07-1.48a3.582 3.582 0 0 0-.008-.764 2.169 2.169 0 0 1 .046-.771c.055-.401.085-.74.093-1.018.008-.27.055-.61.148-1.018.023-.224-.093-.363-.35-.424-.077-.07-.116-.131-.116-.185 0-.054-.054-.116-.17-.185-.404-.055-.652-.085-.745-.078-.093.008-.21.155-.341.455a.967.967 0 0 0-.233.363c-.055.13-.148.27-.287.424a25.69 25.69 0 0 0-1.009 1.55l-.178.293c-.224.367-.478.786-.776 1.257-.07.108-.163.224-.287.34a7.1 7.1 0 0 0-.341.346c-.481.748-.931 1.38-1.35 1.89a6.753 6.753 0 0 1-1.373 1.295c-.365.2-.621.27-.792.224-.163-.054-.294-.293-.388-.725.063-.185.117-.44.156-.771.038-.332.07-.586.1-.771.156-.556.326-1.11.505-1.666.178-.555.349-1.126.504-1.72.17-.262.24-.54.21-.833-.032-.285 0-.586.1-.879-.038-.07-.023-.162.047-.277.07-.116.085-.185.046-.224a5.708 5.708 0 0 1-.31-.81c-.046-.177-.326-.2-.83-.07-.55.024-.892.279-1.016.757a.706.706 0 0 1 .015.385l-.093.44a7.196 7.196 0 0 0-.28 1.164c-.01.071-.021.143-.035.215-.215.084-.331.122-.344.11-.024-.016-.117.069-.295.261l-.53.411-.106.083c-.07.061-.264.193-.59.385-.496.278-.993.563-1.474.856-.48.293-1.008.602-1.582.918l-.479.238c-.952.473-1.887.939-2.81 1.381-1.08.525-2.29.98-3.632 1.365a2.908 2.908 0 0 1-1.062.263 8.57 8.57 0 0 0-.962.1c-.256.007-.458 0-.605-.031a1.745 1.745 0 0 1-.582-.085 1.227 1.227 0 0 1-.535-.362c-.233-.209-.365-.409-.412-.586-.007-.255-.015-.548-.007-.88 0-.14.017-.275.049-.403l.454-.492.148.101c.233.286.489.324.776.131.186-.046.357-.084.52-.108a.662.662 0 0 0 .403-.208c.07-.077.17-.154.295-.231.124-.077.225-.154.295-.231a20.73 20.73 0 0 0 1.404-1.32c.442-.462.853-.932 1.233-1.426.528-.57.714-1.288.567-2.159l-.24-.54c-.187-.177-.443-.331-.761-.462-.318-.132-.62-.14-.908-.016-.178.116-.326.177-.434.185a11.4 11.4 0 0 0-1.18.733 8.303 8.303 0 0 0-.954.779c-.954.848-1.722 1.758-2.304 2.73-.24.408-.387.694-.457.84-.07.154-.186.447-.35.895l-.093.331a.411.411 0 0 0-.083.182 22.2 22.2 0 0 1-1.77 1.438 5.095 5.095 0 0 1-.722.493zm7.191-4.998c-.486.49-1.005.922-1.558 1.295l.007-.061a.366.366 0 0 0 .04-.33 4.303 4.303 0 0 1 1.077-1.49c.473-.424 1.055-.794 1.738-1.118.038 0 .07-.008.108-.031l.017-.007c.031-.013.059-.024.092-.024a17.27 17.27 0 0 1-1.52 1.766zm43.715 6.848c-.085-.216-.069-.378.031-.494.063-.185.094-.377.086-.578l-.001-.023c-.008-.194-.015-.394-.03-.602a1.745 1.745 0 0 1 .046-.794c.078-.278.132-.563.155-.856a2.424 2.424 0 0 1 .078-.717c.062-.224.124-.478.186-.771l.109-1.265c.132-.37.217-.733.256-1.08.039-.347.124-.724.256-1.133l-.008-.108c.062-.185.202-.648.404-1.388.201-.74.426-1.527.667-2.352.24-.833.465-1.581.675-2.244.209-.663.333-1.018.364-1.057.132-.408.233-.786.311-1.133.077-.347.193-.733.364-1.141.031-.186.093-.386.194-.61.101-.223.179-.447.248-.67.202-.41.349-.803.443-1.173.093-.37.225-.74.387-1.11.07-.039.109-.077.109-.116.194-.625.38-1.242.551-1.828.178-.593.395-1.187.667-1.78.194-.518.388-1.034.566-1.528.179-.501.334-1.04.45-1.635l.086-.493a.761.761 0 0 1 .038-.3c.031-.093.024-.21-.015-.356-.008-.185.171-.339.527-.462.295-.047.567-.023.831.07.263.1.504.2.729.3.077.07.132.146.178.239.039.093.023.193-.039.3-.186.741-.403 1.45-.651 2.137-.249.686-.497 1.419-.761 2.198l-1.132 3.061a.53.53 0 0 0-.047.193c0 .054-.031.115-.101.192-.101.286-.189.557-.27.808l-.051.158-.02.06c-.093.316-.225.64-.396.98a8.88 8.88 0 0 0-.535 1.58 6.831 6.831 0 0 1-.589 1.589c-.063.262-.14.509-.241.748a4.424 4.424 0 0 0-.24.802c-.059.156-.14.41-.252.764l-.066.208c-.148.462-.295.987-.45 1.58-.078.297-.158.592-.237.887-.08.295-.159.59-.237.887a50.649 50.649 0 0 0-.372 1.496 58.52 58.52 0 0 1-.21.833c-.077.293-.131.57-.155.825-.062.332-.108.64-.147.94a3.296 3.296 0 0 1-.264.888 332.737 332.737 0 0 0-.31 1.68c-.085.494-.109.965-.047 1.397.016.331-.007.655-.069.987a3.077 3.077 0 0 0-.008 1.04c.039.109.046.201.015.27l-.009.024c-.029.072-.064.157-.092.254-.062.293-.054.617.016.956.07.347.171.679.295 1.003l.116.108c0 .077.023.123.062.162.039.038.078.03.109-.008.178-.116.333-.123.465-.023s.194.239.186.401c-.007.162-.093.324-.256.478-.155.154-.442.24-.845.255a1.602 1.602 0 0 1-1.179-.44c-.264-.17-.435-.37-.52-.61a13.239 13.239 0 0 1-.256-.778c.054-.37.046-.725-.023-1.064a6.076 6.076 0 0 1-.125-1.018z" fill="#FA824C"/></svg>